<svg xmlns="http://www.w3.org/2000/svg" viewBox="0 0 320 280" role="img" aria-label="YourPetBill.com">
  <title>YourPetBill.com</title>
  <g transform="translate(110 16)">
    <rect width="100" height="100" rx="22" fill="#0F766E"></rect>
    <ellipse cx="32" cy="34" rx="6.4" ry="8.2" fill="#ffffff"></ellipse>
    <ellipse cx="50" cy="27" rx="6.6" ry="8.6" fill="#ffffff"></ellipse>
    <ellipse cx="68" cy="34" rx="6.4" ry="8.2" fill="#ffffff"></ellipse>
    <ellipse cx="79" cy="51" rx="5.4" ry="7" fill="#ffffff"></ellipse>
    <ellipse cx="21" cy="51" rx="5.4" ry="7" fill="#ffffff"></ellipse>
    <path d="M50 47C33 47 22 60 22 71C22 82 33 88 50 88C67 88 78 82 78 71C78 60 67 47 50 47Z" fill="#ffffff"></path>
    <rect x="48.6" y="55" width="2.8" height="26" rx="1.4" fill="#0F766E"></rect>
    <path d="M58 62.5C58 59 55 57 50 57C45 57 42 59 42 62.5C42 66 45 67.5 50 68C56 68.5 58 70.5 58 73.5C58 77 55 79 50 79C45 79 42 77 42 73.5" fill="none" stroke="#0F766E" stroke-width="3.2" stroke-linecap="round"></path>
  </g>
  <text x="160" y="180" text-anchor="middle" font-family="Manrope, &#39;Helvetica Neue&#39;, Arial, sans-serif" font-weight="800" font-size="44" letter-spacing="-1.3" fill="#1F2937">Your<tspan fill="#115E59">Pet</tspan>Bill</text>
  <text x="160" y="216" text-anchor="middle" font-family="Manrope, &#39;Helvetica Neue&#39;, Arial, sans-serif" font-weight="600" font-size="20" letter-spacing="0.8" fill="#6B7280">.com</text>
</svg>